<svg width="212" height="127" viewBox="0 0 212 127" fill="none" xmlns="http://www.w3.org/2000/svg">
<path d="M22.9155 99.6359C21.6128 98.9256 20.1719 98.3535 18.5929 97.9195C17.0534 97.446 15.4744 97.0317 13.8559 96.6766C12.2769 96.3215 10.836 95.9071 9.53332 95.4337C8.23063 94.9207 7.18453 94.2499 6.39502 93.4213C5.60551 92.5927 5.21076 91.4879 5.21076 90.1069C5.28971 88.5286 6.11869 87.2463 7.69771 86.2598C9.3162 85.2734 11.3689 84.7802 13.8559 84.7802C14.6454 84.7802 15.5533 84.8985 16.5797 85.1353C17.6455 85.3326 18.6719 85.7074 19.6588 86.2598C20.6456 86.7728 21.4549 87.5027 22.0865 88.4497C22.7181 89.3967 22.9944 90.6199 22.9155 92.1192H26.6459C26.7249 89.7123 26.1919 87.7 25.0472 86.0823C23.9024 84.4645 22.3826 83.2611 20.4877 82.4719C18.5929 81.6433 16.5007 81.229 14.2112 81.229C11.8032 81.229 9.632 81.5841 7.69771 82.2944C5.76341 82.9651 4.22387 83.9318 3.07908 85.1945C1.9343 86.4571 1.32243 87.9762 1.24348 89.7518C1.16453 91.6063 1.50007 93.1451 2.2501 94.3683C3.00013 95.552 4.02649 96.499 5.32918 97.2092C6.63187 97.9195 8.05299 98.5113 9.59253 98.9848C11.1715 99.4189 12.7506 99.8332 14.3296 100.228C15.9086 100.622 17.3494 101.076 18.6521 101.589C19.9943 102.062 21.0601 102.733 21.8496 103.601C22.6392 104.43 23.0142 105.535 22.9747 106.916C22.9747 107.31 22.8563 107.823 22.6194 108.455C22.3826 109.046 21.9483 109.658 21.3167 110.289C20.7246 110.881 19.8561 111.394 18.7114 111.828C17.606 112.223 16.1849 112.42 14.448 112.42C12.3558 112.42 10.6386 112.183 9.29646 111.71C7.9543 111.236 6.9082 110.644 6.15817 109.934C5.40813 109.224 4.85548 108.494 4.5002 107.744C4.1844 106.995 3.98702 106.344 3.90807 105.791C3.82912 105.239 3.78964 104.903 3.78964 104.785H0C0 106.718 0.394754 108.395 1.18426 109.816C2.01325 111.236 3.09882 112.4 4.44099 113.308C5.82263 114.176 7.34243 114.827 9.0004 115.261C10.6978 115.695 12.415 115.912 14.1519 115.912C16.5599 115.912 18.7114 115.577 20.6062 114.906C22.501 114.196 24.0208 113.209 25.1656 111.947C26.3104 110.644 26.9222 109.066 27.0012 107.212C27.0801 105.318 26.7446 103.759 25.9946 102.536C25.2445 101.313 24.2182 100.346 22.9155 99.6359Z" fill="white"/>
<path d="M65.6908 91.7074C64.546 92.1415 63.5986 92.7333 62.8486 93.483C62.138 94.1933 61.5854 95.0021 61.1906 95.9097C60.9695 96.4147 60.8037 96.9198 60.6853 97.4248L60.3024 91.0564H56.868V115.145H60.6577V103.9C60.6577 102.637 60.7761 101.473 61.013 100.408C61.2498 99.3424 61.684 98.4349 62.3157 97.6852C62.9473 96.8961 63.8552 96.3042 65.0395 95.9097C66.2237 95.4756 67.7633 95.2586 69.6581 95.2586H70.8423V91.0564H69.7173C68.1778 91.0564 66.8356 91.2734 65.6908 91.7074Z" fill="white"/>
<path d="M41.2958 90.9956C38.7299 90.9956 36.5785 91.5283 34.8415 92.5936C33.1441 93.659 31.8611 95.1386 30.9927 97.0326C30.1637 98.8871 29.7492 101.018 29.7492 103.425C29.7492 105.832 30.1637 107.903 30.9927 109.758C31.8611 111.612 33.1441 113.072 34.8415 114.137C36.5785 115.203 38.7299 115.735 41.2958 115.735C43.8617 115.735 46.1118 115.203 47.8092 114.137C49.5067 113.033 50.7699 111.553 51.5989 109.698C52.4278 107.844 52.8423 105.753 52.8423 103.425C52.8423 99.6762 51.8554 96.6775 49.8817 94.4284C47.9079 92.1399 45.0459 90.9956 41.2958 90.9956ZM48.4013 107.627C47.9671 109.008 47.1973 110.152 46.092 111.06C44.9867 111.967 43.388 112.421 41.2958 112.421C39.2036 112.421 37.6838 111.967 36.4995 111.06C35.3547 110.152 34.5652 109.008 34.131 107.627C33.6967 106.206 33.4796 104.766 33.4796 103.306C33.4796 101.846 33.6967 100.406 34.131 98.9857C34.5652 97.5653 35.3547 96.4013 36.4995 95.4937C37.6838 94.5862 39.2825 94.1325 41.2958 94.1325C43.309 94.1325 44.9867 94.5862 46.092 95.4937C47.1973 96.4013 47.9671 97.5653 48.4013 98.9857C48.875 100.406 49.1119 101.846 49.1119 103.306C49.1119 104.766 48.875 106.206 48.4013 107.627Z" fill="white"/>
<path d="M92.0393 94.4284C90.0656 92.1399 87.2036 90.9956 83.4534 90.9956C80.8875 90.9956 78.7361 91.5283 76.9992 92.5936C75.3017 93.659 74.0188 95.1386 73.1503 97.0326C72.3214 98.8871 71.9069 101.018 71.9069 103.425C71.9069 105.832 72.3214 107.903 73.1503 109.758C74.0188 111.612 75.3017 113.072 76.9992 114.137C78.7361 115.203 80.8875 115.735 83.4534 115.735C86.0193 115.735 88.2694 115.203 89.9669 114.137C91.6643 113.033 92.9275 111.553 93.7565 109.698C94.5855 107.844 95 105.753 95 103.425C95 99.6762 94.0131 96.6775 92.0393 94.4284ZM90.559 107.627C90.1248 109.008 89.355 110.152 88.2497 111.06C87.1444 111.967 85.5456 112.421 83.4534 112.421C81.3612 112.421 79.8414 111.967 78.6572 111.06C77.5124 110.152 76.7229 109.008 76.2886 107.627C75.8544 106.206 75.6373 104.766 75.6373 103.306C75.6373 101.846 75.8544 100.406 76.2886 98.9857C76.7229 97.5653 77.5124 96.4013 78.6572 95.4937C79.8414 94.5862 81.4402 94.1325 83.4534 94.1325C85.4667 94.1325 87.1444 94.5862 88.2497 95.4937C89.355 96.4013 90.1248 97.5653 90.559 98.9857C91.0327 100.406 91.2696 101.846 91.2696 103.306C91.2696 104.766 91.0327 106.206 90.559 107.627Z" fill="white"/>
<path d="M105.417 95.9667C105.969 95.4932 106.877 95.2564 108.14 95.2564C108.732 95.2564 109.305 95.3353 109.858 95.4932C110.45 95.6115 110.983 95.8088 111.456 96.085C111.93 96.3612 112.305 96.7558 112.581 97.2688C112.897 97.7817 113.035 98.4328 112.996 99.2219H119.509C119.47 97.6436 119.154 96.2626 118.562 95.0789C117.97 93.8952 117.141 92.9284 116.075 92.1788C115.009 91.4291 113.785 90.8767 112.404 90.5215C111.022 90.127 109.522 89.9297 107.903 89.9297C105.061 89.9297 102.712 90.5018 100.857 91.6461C99.0413 92.7903 98.1333 94.5462 98.1333 96.9136C98.0939 98.4919 98.4097 99.7743 99.0807 100.761C99.7913 101.708 100.699 102.477 101.805 103.069C102.91 103.621 104.074 104.075 105.298 104.43C106.561 104.785 107.746 105.121 108.851 105.436C109.956 105.752 110.844 106.127 111.516 106.561C112.226 106.956 112.581 107.528 112.581 108.277C112.621 108.593 112.522 108.928 112.285 109.284C112.048 109.639 111.654 109.954 111.101 110.231C110.548 110.467 109.798 110.586 108.851 110.586C107.627 110.586 106.7 110.388 106.068 109.994C105.436 109.599 104.982 109.165 104.706 108.692C104.469 108.179 104.331 107.725 104.292 107.33C104.252 106.896 104.232 106.66 104.232 106.62H97.6596C97.6596 108.159 97.936 109.461 98.4886 110.526C99.0807 111.592 99.8505 112.48 100.798 113.19C101.745 113.861 102.732 114.393 103.759 114.788C104.824 115.143 105.831 115.38 106.778 115.498C107.726 115.656 108.476 115.735 109.029 115.735C111.16 115.735 112.996 115.478 114.535 114.965C116.075 114.413 117.259 113.624 118.088 112.598C118.957 111.572 119.391 110.29 119.391 108.751C119.391 107.212 119.036 106.048 118.325 105.141C117.614 104.194 116.707 103.444 115.601 102.891C114.496 102.339 113.292 101.885 111.989 101.53C110.726 101.175 109.542 100.84 108.436 100.524C107.331 100.208 106.423 99.8335 105.713 99.3995C105.002 98.926 104.647 98.2749 104.647 97.4463C104.647 96.8939 104.903 96.4007 105.417 95.9667Z" fill="#8866DD"/>
<path d="M146.739 109.166H146.621L141.647 90.6411H135.548L130.811 109.166H130.692L127.377 90.6411H120.33V91.8248L125.6 115.144H135.726L138.568 103.011H138.686L141.706 115.144H151.654L157.042 91.8248V90.6411H150.055L146.739 109.166Z" fill="#8866DD"/>
<path d="M175.832 95.3744H175.713C175.634 95.2561 175.457 94.9601 175.18 94.4866C174.904 93.9737 174.47 93.4213 173.878 92.8294C173.325 92.2376 172.555 91.7444 171.568 91.3498C170.581 90.9157 169.338 90.6987 167.838 90.6987C165.627 90.6987 163.851 91.2314 162.509 92.2968C161.206 93.3226 160.239 94.7826 159.607 96.6765C159.015 98.5705 158.719 100.78 158.719 103.305C158.719 105.831 159.015 108.021 159.607 109.875C160.199 111.73 161.167 113.17 162.509 114.196C163.851 115.221 165.627 115.734 167.838 115.734C169.298 115.734 170.522 115.537 171.509 115.143C172.496 114.787 173.285 114.353 173.878 113.84C174.47 113.328 174.904 112.854 175.18 112.42C175.496 111.947 175.674 111.631 175.713 111.473H175.832L176.957 115.143H183.174V90.7579H175.832V95.3744ZM175.417 106.561C175.18 107.547 174.707 108.336 173.996 108.928C173.285 109.48 172.22 109.757 170.799 109.757C169.377 109.757 168.292 109.461 167.542 108.869C166.831 108.277 166.358 107.508 166.121 106.561C165.884 105.574 165.765 104.509 165.765 103.365C165.765 102.22 165.884 101.175 166.121 100.228C166.358 99.2413 166.831 98.4521 167.542 97.8602C168.292 97.2684 169.377 96.9725 170.799 96.9725C172.22 96.9725 173.285 97.2487 173.996 97.8011C174.707 98.3535 175.18 99.1229 175.417 100.109C175.654 101.096 175.772 102.181 175.772 103.365C175.772 104.548 175.654 105.574 175.417 106.561Z" fill="#8866DD"/>
<path d="M210.936 96.7351C210.304 94.8017 209.258 93.3221 207.798 92.2962C206.337 91.2703 204.383 90.7573 201.936 90.7573C200.396 90.7573 199.133 90.9941 198.146 91.4676C197.159 91.941 196.389 92.4934 195.837 93.1248C195.284 93.7561 194.889 94.3282 194.652 94.8412C194.416 95.3147 194.297 95.5711 194.297 95.6106H194.179L192.995 90.7573H186.777V126.447H194.179V111.295H194.297C194.297 111.374 194.416 111.65 194.652 112.123C194.929 112.558 195.363 113.051 195.955 113.603C196.547 114.156 197.317 114.649 198.265 115.083C199.251 115.517 200.475 115.734 201.936 115.734C204.344 115.734 206.278 115.241 207.739 114.254C209.199 113.268 210.245 111.867 210.877 110.052C211.548 108.197 211.884 105.988 211.884 103.423C211.884 100.858 211.568 98.6291 210.936 96.7351ZM204.6 106.501C204.363 107.448 203.85 108.237 203.061 108.868C202.311 109.5 201.166 109.815 199.626 109.815C198.205 109.815 197.08 109.519 196.251 108.927C195.462 108.336 194.909 107.566 194.593 106.619C194.317 105.633 194.179 104.548 194.179 103.364C194.179 102.18 194.317 101.154 194.593 100.168C194.909 99.1815 195.462 98.4121 196.251 97.8597C197.041 97.3072 198.146 97.031 199.567 97.031C201.107 97.031 202.252 97.327 203.002 97.9188C203.791 98.5107 204.324 99.2998 204.6 100.286C204.877 101.233 205.015 102.259 205.015 103.364C205.015 104.469 204.877 105.514 204.6 106.501Z" fill="#8866DD"/>
<path d="M103.523 20.3978C101.874 20.6895 100.237 20.9989 98.6277 21.326C98.0484 21.441 97.4691 21.5603 96.8942 21.6841C95.2625 22.0288 93.6484 22.3957 92.0697 22.7803C91.4639 22.9261 91.0791 23.5228 91.1897 24.1328L91.4727 25.7285C91.5921 26.4047 92.2554 26.8335 92.9187 26.67C94.4488 26.2987 96.0054 25.9406 97.5885 25.6047C98.1634 25.4809 98.7383 25.3616 99.322 25.2423C100.936 24.9152 102.568 24.6013 104.217 24.314C114.242 22.546 123.9 21.6752 132.024 21.7725C133.859 21.7946 135.614 21.8609 137.277 21.9846C137.489 22.0023 137.697 22.02 137.901 22.0333C147.444 22.8245 150.367 25.0655 150.583 26.2898C150.8 27.5142 148.819 30.6127 140.121 34.6173C140.138 33.3488 140.085 32.0713 139.953 30.7851C139.873 29.932 139.754 29.0833 139.603 28.2258C139.502 27.6512 139.387 27.081 139.258 26.5197C139.143 26.0202 138.706 25.6577 138.193 25.6224L135.11 25.4102C134.31 25.3572 133.682 26.0998 133.881 26.8733C134.076 27.6159 134.239 28.3717 134.376 29.1452C134.606 30.4492 134.748 31.7487 134.792 33.0393C134.845 34.3256 134.81 35.6074 134.686 36.8716C134.65 37.2429 134.606 37.6142 134.558 37.9855L134.549 38.0606C134.394 39.1921 134.168 40.3104 133.885 41.4022C133.505 42.8741 133.001 44.3062 132.395 45.6809C128.654 54.2338 120.831 60.8242 110.965 62.5657C101.259 64.2763 91.8044 60.8993 85.3657 54.3576C85.1402 54.1277 84.8306 53.9951 84.5078 53.9995L80.5898 54.0482C79.5948 54.0614 79.0553 55.2239 79.6921 55.9886C87.2805 65.0896 99.4016 69.9959 111.885 67.7947C125.24 65.4388 135.429 55.5819 138.86 43.325C139.249 41.9547 139.546 40.558 139.754 39.1303C140.236 38.9225 140.713 38.7148 141.178 38.507C150.774 34.1974 155.249 29.8524 154.501 25.6003C153.754 21.3481 148.058 18.7977 137.569 18.0242C137.061 17.9888 136.543 17.9535 136.017 17.927C134.027 17.8209 131.918 17.7767 129.72 17.7988C121.866 17.8739 112.836 18.7579 103.523 20.4022V20.3978Z" fill="#8866DD"/>
<path d="M74.3315 50.2891C74.84 50.3244 75.3574 50.3598 75.8836 50.3863C77.8736 50.4968 79.9785 50.541 82.1764 50.5145C90.0301 50.4393 99.0645 49.5553 108.378 47.911C110.027 47.6193 111.668 47.3099 113.277 46.9784C113.857 46.8635 114.436 46.7441 115.011 46.6204C116.647 46.2756 118.257 45.9087 119.835 45.5242C120.441 45.3783 120.826 44.7816 120.715 44.1716L120.432 42.576C120.313 41.8997 119.65 41.4709 118.986 41.6345C117.456 42.0058 115.895 42.3638 114.316 42.6997C113.742 42.8235 113.167 42.9472 112.583 43.0622C110.969 43.3893 109.337 43.7031 107.683 43.9948C97.6583 45.7629 87.9959 46.638 79.8724 46.5408C78.0372 46.5143 76.2816 46.4436 74.6189 46.3198C74.4111 46.3021 74.1988 46.2844 73.9954 46.2712C64.4568 45.48 61.5294 43.2434 61.3127 42.019C61.096 40.7946 63.0816 37.6917 71.7755 33.6871C71.7578 34.9557 71.8109 36.2331 71.9435 37.5238C72.0231 38.3768 72.1425 39.2299 72.2929 40.0874C72.3946 40.662 72.5096 41.2278 72.6378 41.7892C72.7528 42.2886 73.1906 42.6511 73.7035 42.6865L76.7813 42.8986C77.5818 42.9517 78.2097 42.2091 78.0107 41.4356C77.8161 40.693 77.6525 39.9371 77.5154 39.168C77.2855 37.8641 77.1484 36.5558 77.0953 35.2651C77.0467 33.9744 77.0865 32.697 77.2059 31.4373C77.3474 29.8991 77.6215 28.3874 78.0019 26.9155C78.3866 25.448 78.8819 24.0203 79.4877 22.6456C83.2244 14.0839 91.0472 7.48905 100.926 5.74753C110.633 4.03694 120.079 7.40949 126.517 13.9513C126.743 14.1811 127.052 14.3137 127.375 14.3093L131.302 14.2651C132.297 14.2518 132.836 13.0893 132.2 12.3247C124.611 3.22806 112.486 -1.67827 100.002 0.522945C86.6471 2.87887 76.4585 12.7402 73.0269 24.9927C72.6422 26.363 72.3415 27.7597 72.1337 29.183C71.6472 29.3863 71.1741 29.5941 70.7053 29.8018C61.1181 34.1114 56.6385 38.452 57.3858 42.7086C58.1332 46.9651 63.8333 49.5067 74.3182 50.2802L74.3315 50.2891Z" fill="#8866DD"/>
</svg>
