<svg xmlns="http://www.w3.org/2000/svg" width="69" height="48" viewBox="0 0 69 48" fill="none">
<g id="Group 296">
<g id="Group 288">
<path id="Vector_9" d="M32.9975 14.8043C31.8345 15.0064 30.6808 15.2207 29.5458 15.4473C29.1373 15.5269 28.7288 15.6096 28.3235 15.6953C27.1729 15.9342 26.0347 16.1883 24.9216 16.4547C24.4944 16.5558 24.2231 16.9691 24.3011 17.3917L24.5006 18.4971C24.5848 18.9655 25.0525 19.2626 25.5202 19.1493C26.5991 18.8921 27.6967 18.644 28.813 18.4113C29.2184 18.3256 29.6237 18.2429 30.0353 18.1602C31.1734 17.9337 32.324 17.7162 33.4871 17.5172C40.5559 16.2924 47.3659 15.6892 53.0939 15.7566C54.388 15.7719 55.6259 15.8178 56.7983 15.9036C56.9479 15.9158 57.0945 15.9281 57.2379 15.9372C63.9669 16.4853 66.028 18.0378 66.1807 18.8859C66.3335 19.7341 64.9366 21.8805 58.8032 24.6547C58.8157 23.7759 58.7783 22.891 58.6847 22C58.6286 21.409 58.5444 20.8211 58.4384 20.2271C58.3667 19.829 58.2856 19.434 58.1952 19.0452C58.1141 18.6991 57.8054 18.4481 57.4437 18.4236L55.2704 18.2766C54.706 18.2398 54.2632 18.7543 54.4035 19.2901C54.5407 19.8045 54.6561 20.3281 54.7528 20.864C54.9149 21.7673 55.0147 22.6675 55.0459 23.5616C55.0833 24.4526 55.0584 25.3406 54.971 26.2163C54.9461 26.4735 54.9149 26.7307 54.8806 26.9879L54.8744 27.04C54.7653 27.8239 54.6062 28.5985 54.4067 29.3548C54.1385 30.3745 53.783 31.3666 53.3559 32.3188C50.7179 38.2438 45.2019 42.8092 38.2454 44.0156C31.4011 45.2006 24.7345 42.8613 20.1945 38.3295C20.0354 38.1703 19.8172 38.0784 19.5896 38.0815L16.8269 38.1152C16.1253 38.1244 15.7449 38.9297 16.1939 39.4594C21.5446 45.764 30.0914 49.1628 38.8939 47.638C48.3107 46.0059 55.4949 39.1777 57.9146 30.6868C58.189 29.7376 58.3979 28.77 58.5444 27.781C58.8843 27.6371 59.2211 27.4932 59.5485 27.3492C66.3148 24.3638 69.4704 21.3539 68.9434 18.4083C68.4165 15.4626 64.4003 13.6959 57.0041 13.16C56.6455 13.1355 56.2807 13.111 55.9096 13.0927C54.5064 13.0192 53.0191 12.9885 51.4694 13.0039C45.9316 13.0559 39.5643 13.6683 32.9975 14.8074V14.8043Z" fill="#8866DD"/>
<path id="Vector_10" d="M12.0045 34.8386C12.3631 34.8631 12.7279 34.8876 13.0989 34.906C14.502 34.9826 15.9862 35.0132 17.5358 34.9948C23.0733 34.9428 29.4433 34.3303 36.0097 33.1912C37.1727 32.9891 38.3294 32.7748 39.4644 32.5451C39.8728 32.4655 40.2813 32.3828 40.6866 32.2971C41.8403 32.0582 42.9752 31.8041 44.0883 31.5377C44.5155 31.4366 44.7867 31.0232 44.7088 30.6007L44.5092 29.4952C44.425 29.0267 43.9574 28.7297 43.4897 28.843C42.4108 29.1002 41.3102 29.3482 40.1971 29.581C39.7918 29.6667 39.3864 29.7524 38.9749 29.8321C37.8368 30.0587 36.6863 30.2761 35.5202 30.4782C28.4518 31.703 21.639 32.3093 15.9113 32.242C14.6174 32.2236 13.3796 32.1746 12.2072 32.0888C12.0607 32.0766 11.911 32.0644 11.7676 32.0552C5.04215 31.507 2.97806 29.9576 2.82528 29.1094C2.6725 28.2612 4.07246 26.1116 10.2024 23.3373C10.1899 24.2161 10.2273 25.1011 10.3208 25.9952C10.377 26.5862 10.4612 27.1772 10.5672 27.7712C10.6389 28.1693 10.7199 28.5613 10.8104 28.9502C10.8914 29.2962 11.2001 29.5473 11.5618 29.5718L13.7319 29.7188C14.2962 29.7555 14.739 29.2411 14.5987 28.7052C14.4615 28.1908 14.3461 27.6671 14.2495 27.1343C14.0873 26.231 13.9907 25.3246 13.9533 24.4305C13.919 23.5363 13.947 22.6514 14.0312 21.7786C14.131 20.713 14.3243 19.6658 14.5924 18.6461C14.8637 17.6295 15.2129 16.6404 15.6401 15.6881C18.2747 9.75672 23.7904 5.18801 30.7559 3.98153C37.5998 2.79649 44.2598 5.1329 48.7995 9.66485C48.9586 9.82408 49.1768 9.91595 49.4044 9.91288L52.1732 9.88226C52.8747 9.87308 53.2551 9.06774 52.8061 8.53799C47.4557 2.23612 38.9063 -1.16285 30.1043 0.362095C20.688 1.99421 13.5043 8.82583 11.0847 17.3141C10.8135 18.2633 10.6015 19.231 10.4549 20.217C10.1119 20.3578 9.77832 20.5017 9.44782 20.6457C2.68809 23.6312 -0.470398 26.6383 0.0565376 29.5871C0.583469 32.5359 4.60252 34.2966 11.9952 34.8325L12.0045 34.8386Z" fill="#8866DD"/>
</g>
</g>
</svg>